<?xml version="1.0" encoding="utf-8"?>
<!-- Generator: Adobe Illustrator 21.0.2, SVG Export Plug-In . SVG Version: 6.00 Build 0)  -->
<svg version="1.1" id="Layer_1" xmlns="http://www.w3.org/2000/svg" xmlns:xlink="http://www.w3.org/1999/xlink" x="0px" y="0px"
	 viewBox="0 0 245.9 77.7" style="enable-background:new 0 0 245.9 77.7;" xml:space="preserve">
<style type="text/css">
	.st0{fill:#F4F6F8;}
	.st1{fill:none;stroke:#474CA3;stroke-width:0.5;stroke-linecap:round;stroke-miterlimit:10;}
	.st2{fill:none;stroke:#9C6F19;stroke-width:0.5;stroke-linecap:round;stroke-miterlimit:10;}
	.st3{fill:#EEC200;}
	.st4{fill:none;stroke:#EEC200;stroke-width:0.5;stroke-miterlimit:10;}
	.st5{fill:none;stroke:#EEC200;stroke-width:0.5;stroke-linecap:round;stroke-miterlimit:10;}
	.st6{fill:#F7DCF0;}
	.st7{fill:#F7D0EC;}
	.st8{fill:#EACCE4;}
	.st9{fill:#ED6848;}
	.st10{fill:#FF9780;}
	.st11{fill:#F47C69;}
	.st12{fill:#BBE5B3;}
	.st13{fill:#FFFFFF;}
	.st14{fill:none;stroke:#474747;stroke-width:0.25;stroke-linecap:round;stroke-miterlimit:10;}
	.st15{opacity:0.5;fill:#CFE2E0;enable-background:new    ;}
	.st16{opacity:0.8;fill:none;stroke:#A8C6C5;stroke-width:2;stroke-linecap:round;stroke-miterlimit:10;enable-background:new    ;}
	.st17{fill:none;stroke:#474CA3;stroke-width:0.25;stroke-linecap:round;stroke-miterlimit:10;}
</style>
<title>flower_banner</title>
<rect x="-6.8" class="st0" width="256.7" height="77.7"/>
<path class="st1" d="M95.6,38.2c2.7-1.1,8.1,2.1,7.2,5.9s-8.9-0.8-1-3.9s15,8.3,15,8.3c1.1,1.8,1.7,4,1.6,6.2"/>
<path class="st2" d="M111.8,22.8c0,0-1.4-5-3.3-6"/>
<path class="st3" d="M107.7,20.1c0,0,3.6-0.7,4.2,2.7C111.8,22.8,108.8,24.3,107.7,20.1z"/>
<path class="st3" d="M108.4,24.2c0,0,3.1-2,4.9,0.9C113.3,25.1,111,27.6,108.4,24.2z"/>
<path class="st3" d="M109.8,26.9c0,0,3.1-1.9,4.8,1C114.6,27.9,112.3,30.3,109.8,26.9z"/>
<path class="st4" d="M111.3,22.2c0,0,8.3,8.2,8.5,42.1"/>
<path class="st3" d="M114.4,19.3c0,0,1.2,3.5-2,4.5C112.4,23.8,110.5,21.1,114.4,19.3z"/>
<path class="st3" d="M116.6,21.8c0,0,0.4,3.6-2.9,4C113.7,25.8,112.4,22.7,116.6,21.8z"/>
<path class="st3" d="M117.7,24.4c0,0,0.4,3.6-2.9,4C114.8,28.4,113.5,25.3,117.7,24.4z"/>
<path class="st3" d="M110.8,29.6c0,0,3.1-1.9,4.8,1C115.7,30.6,113.4,33,110.8,29.6z"/>
<path class="st3" d="M111.3,32c0,0,3.1-1.9,4.8,1C116.2,33,113.9,35.5,111.3,32z"/>
<path class="st3" d="M118.5,27c0,0,0.4,3.6-2.9,4C115.6,31,114.3,27.8,118.5,27z"/>
<path class="st3" d="M119.3,29.7c0,0,0.4,3.6-2.9,4C116.3,33.7,115.1,30.6,119.3,29.7z"/>
<path class="st5" d="M108.4,20.6c0,0-4.2-3.1-6.3-2.6"/>
<path class="st5" d="M109.8,24.5c0,0-5.1-1.1-6.8,0.2"/>
<path class="st2" d="M127.8,16.5c0,0,5.1-1.1,6.8,0.2"/>
<path class="st2" d="M125.8,14.7c0,0,1.4-5,3.3-6"/>
<path class="st3" d="M129.9,12.1c0,0-3.6-0.7-4.2,2.7C125.7,14.8,128.8,16.2,129.9,12.1z"/>
<path class="st3" d="M129.2,16.2c0,0-3.1-2-4.9,0.9C124.3,17,126.5,19.6,129.2,16.2z"/>
<path class="st3" d="M127.8,18.8c0,0-3.1-1.9-4.8,1C123,19.8,125.3,22.3,127.8,18.8z"/>
<path class="st4" d="M126.3,14.1c-0.9,1.1-1.7,2.4-2.4,3.6c-1.8,3.7-2.6,7.7-2.4,11.8c0.2,6.2-0.9,17.5-3,33.9"/>
<path class="st3" d="M123.2,11.3c0,0-1.2,3.5,2,4.5C125.2,15.8,127.1,13,123.2,11.3z"/>
<path class="st3" d="M121,13.8c0,0-0.4,3.6,2.9,4C123.9,17.8,125.2,14.7,121,13.8z"/>
<path class="st3" d="M119.9,16.3c0,0-0.4,3.6,2.9,4C122.8,20.3,124.1,17.2,119.9,16.3z"/>
<path class="st3" d="M126.7,21.5c0,0-3.1-1.9-4.8,1C121.9,22.5,124.2,25,126.7,21.5z"/>
<path class="st3" d="M126.2,24c0,0-3.1-1.9-4.8,1C121.4,25,123.7,27.4,126.2,24z"/>
<path class="st3" d="M119.1,18.9c0,0-0.4,3.6,2.9,4C122,22.9,123.3,19.8,119.1,18.9z"/>
<path class="st3" d="M118.3,21.7c0,0-0.4,3.6,2.9,4C121.2,25.6,122.5,22.5,118.3,21.7z"/>
<path class="st5" d="M129.2,12.6c0.4-0.5,0.9-0.9,1.4-1.2c0.9-0.6,1.9-1,2.9-1.2"/>
<path class="st2" d="M134.9,27.4c0,0,2.8-4.5,4.9-4.8"/>
<path class="st3" d="M139.6,26c0,0-3.3-1.6-4.7,1.4C134.8,27.4,137.3,29.7,139.6,26z"/>
<path class="st3" d="M137.8,29.8c0,0-2.4-2.8-4.9-0.5C132.8,29.2,134.3,32.3,137.8,29.8z"/>
<path class="st3" d="M135.7,31.9c0,0-2.4-2.7-4.9-0.4C130.8,31.5,132.3,34.5,135.7,31.9z"/>
<path class="st4" d="M135.6,27c-1.5,1.1-2.9,2.3-4.1,3.7c-1.6,1.8-2.9,3.8-4,6c-2.1,4.2-5.1,14.8-7.4,29.3"/>
<path class="st3" d="M133.4,23.4c0,0-2.1,3,0.7,4.9C134,28.3,136.6,26.1,133.4,23.4z"/>
<path class="st3" d="M130.5,25.2c0,0-1.4,3.4,1.7,4.6C132.2,29.8,134.3,27.2,130.5,25.2z"/>
<path class="st3" d="M128.8,27.3c0,0-1.4,3.4,1.7,4.6C130.5,32,132.6,29.3,128.8,27.3z"/>
<path class="st3" d="M133.9,34.2c0,0-2.4-2.7-4.9-0.4C129,33.8,130.5,36.8,133.9,34.2z"/>
<path class="st3" d="M132.8,36.4c0,0-2.4-2.7-4.9-0.4C127.8,36,129.4,39,132.8,36.4z"/>
<path class="st3" d="M127.3,29.5c0,0-1.4,3.4,1.7,4.6C129,34.2,131.1,31.5,127.3,29.5z"/>
<path class="st3" d="M125.8,32c0,0-1.4,3.4,1.7,4.6C127.5,36.6,129.6,34,125.8,32z"/>
<path class="st5" d="M138.8,26.3c0,0,4.9-1.8,6.8-0.7"/>
<path class="st5" d="M136.4,29.6c0,0,5.2,0.4,6.5,2.1"/>
<path class="st6" d="M129.3,40c0,0,0-1.9,1-1.1s0,3.8,0,3.8s-2.9-1.2-2.9-2.5S129.3,40,129.3,40z"/>
<path class="st7" d="M132.4,40.8c0,0,1.8-0.6,1.4,0.6s-3.6,1.2-3.6,1.2s0.2-3.1,1.4-3.6S132.4,40.8,132.4,40.8z"/>
<path class="st7" d="M126,43.2c0,0-1.9-0.3-0.9-1.2s3.7,0.6,3.7,0.6s-1.6,2.7-2.9,2.5S126,43.2,126,43.2z"/>
<path class="st6" d="M130.8,45.1c0,0-0.3,1.9-1.2,0.9s0.6-3.7,0.6-3.7s2.7,1.6,2.5,2.9S130.8,45.1,130.8,45.1z"/>
<path class="st8" d="M140.2,53.9c0,0,0.7,0.9,0.5,1.2c-0.1,0.2-0.4,0.1-0.5,0.1c-1.1-0.2-3-3.1-3.5-3.8c0.8,0.4,1.7,0.6,2.6,0.7
	c0.8,0.1,1.5,0.1,2,0.7C142.1,53.8,140.2,53.9,140.2,53.9z"/>
<path class="st1" d="M102.9,29.5c-1.4,2.1-4-2.9-4-2.9"/>
<path class="st9" d="M124.8,31.3c0,0-4.8,1.2-3,4.4C123.6,39,127,32.8,124.8,31.3z"/>
<path class="st10" d="M121.8,31c0,0,2.9,1.8,2.4,4.9s-3.1,1.5-3.2,1.1S119.6,32.8,121.8,31z"/>
<path class="st11" d="M126.8,32.2c0,0-3.4,0.5-4.2,3.5s2.3,2.6,2.5,2.3S128.1,34.7,126.8,32.2z"/>
<path class="st12" d="M126.1,37.8c0,0-9.4,11.7-6.5,19.7C119.6,57.5,121.6,46.6,126.1,37.8z"/>
<path class="st13" d="M112.2,37.6c0,0-0.3-1.8,0-1.7c0.3,0.1,0.3-1.4,0.6-1.3s0.5-0.7,1.1-1.2c0.3-0.2,0.4-0.1,0.9-0.4
	c0.5-0.3,0.6-0.5,0.8-0.5s0.2,0.4,0.2,1c0,0.1,0,0.4,0.1,0.4c0.1,0,0.1,0,0.1,0s0,0.3-0.2,0.5c-0.2,0.3-0.4,0.5-0.7,0.7
	c-0.1,0.1-0.3,0.3-0.2,0.3c0,0.1,0.2,0,0.2,0s-0.1,0.2-0.1,0.3C114.7,36.2,112.9,37.6,112.2,37.6z"/>
<path class="st14" d="M112,38c0,0,2.6-0.8,3.3-2.3c0-0.1,0-0.1,0-0.1c0,0-0.2,0-0.3,0h-0.1c0,0,0.2-0.2,0.4-0.4
	c0.5-0.4,0.9-1.1,0.8-1.2c0,0-0.1-0.1-0.1-0.1c-0.1,0-0.2,0.2-0.4,0.2s-0.2-0.3-0.3-1.5"/>
<path class="st14" d="M112,38c0,0-2.7,0.7-3.5,2c0,0.1,0,0.1,0,0.1s0.1,0,0.3,0h0.1c0,0-0.2,0.2-0.4,0.3c-0.5,0.4-1,1-0.8,1.2
	c0,0,0,0,0.1,0.1c0.1,0,0.2-0.2,0.4-0.2s0.2,0.3,0.2,1.5"/>
<path class="st13" d="M112,37.7c0,0-1.8,0.5-1.7,0.1s-1.5-0.2-1.4-0.5s-0.8-0.4-1.2-1c-0.2-0.3-0.1-0.4-0.4-0.9s-0.6-0.6-0.5-0.7
	s0.4-0.2,1-0.2c0.1,0,0.4,0,0.4-0.2s0-0.1,0-0.1s0.3,0,0.5,0.1c0.3,0.2,0.5,0.4,0.8,0.6c0.2,0.1,0.3,0.3,0.4,0.2s0-0.2,0-0.2
	c0,0,0.3,0.1,0.3,0.1C110.5,35.2,112,37,112,37.7z"/>
<path class="st14" d="M112.2,37.8c0,0-0.7-3.1-2.2-4c-0.1,0-0.1,0-0.1,0s0,0.2,0,0.4s0,0.1,0,0.1s-0.2-0.3-0.4-0.5
	c-0.4-0.6-1.1-1.1-1.3-1c0,0-0.1,0.1-0.1,0.1c0,0.1,0.3,0.2,0.2,0.4c-0.1,0.2-0.4,0.2-1.7,0.2"/>
<path class="st13" d="M112.3,37.8c0,0,0.5,1.7,0.2,1.6s-0.1,1.4-0.4,1.3s-0.4,0.8-0.9,1.2c-0.3,0.2-0.4,0.1-0.8,0.5
	s-0.5,0.6-0.7,0.5s-0.2-0.4-0.3-0.9c0-0.1-0.1-0.4-0.2-0.4s-0.1,0-0.1,0s0-0.3,0.1-0.5c0.2-0.3,0.3-0.5,0.6-0.8
	c0.1-0.1,0.2-0.3,0.2-0.3s-0.2,0-0.2,0s0.1-0.2,0.1-0.3C110.1,39.3,111.6,37.8,112.3,37.8z"/>
<path class="st15" d="M116.1,50.4c-0.6,1-1,2.1-1.3,3.3v10.8c0,0-0.1,1.9,1.3,2.2s7.3,0.5,8.6,0c1.3-0.5,1.1-1.7,1.1-2.2
	s-0.3-11.4-0.3-11.4c-0.2-1.1-0.5-2.1-1.1-3C121.7,50.9,118.8,51.1,116.1,50.4z"/>
<path class="st16" d="M124,50.1c-2.5,1.4-5.5,1.4-8,0"/>
<path class="st14" d="M122.6,51.4c-2.3,0.6-4.8,0.4-6.9-0.8c0,0-0.4-0.1-0.2-0.7c0.1-0.3,0.4-0.5,0.7-0.5"/>
<path class="st14" d="M123.2,51.2c0.5-0.2,1-0.4,1.4-0.7"/>
<path class="st14" d="M124.6,50.4l0.8,2.6c0,0,0.4,10.9,0.3,11.4c0.1,0.6-0.1,1.1-0.3,1.6c-0.2,0.3-0.5,0.5-0.8,0.6
	c-1.2,0.5-2.4,0-3.9-0.1c-2.5-0.2-3.3,0.8-4.7,0.1c-0.5-0.3-0.9-0.7-1.1-1.1"/>
<path class="st17" d="M138,39.9c0,0,0.1,0.7,0.7,0.5s0.3-0.9,0-0.9S137.9,39.7,138,39.9z"/>
<path class="st17" d="M129.8,48.2c0,0-1.1,0.9-0.2,1.6s1.9-0.3,1.6-0.9S130.1,47.8,129.8,48.2z"/>
</svg>
