<svg xmlns="http://www.w3.org/2000/svg" viewBox="0 0 185.1 86.7"><defs><style>.a,.b,.c{fill:#ffea8a;}.a{opacity:0.45;}.b{opacity:0.35;}.c{opacity:0.65;}.d{fill:#f0f2ff;}.e{fill:#e1eaef;}.f{fill:#eec200;}.g{fill:#f9df6e;}.h,.k{fill:none;stroke-linecap:round;stroke-miterlimit:10;stroke-width:0.25px;}.h{stroke:#474ca3;}.i{fill:#606ac4;}.j{fill:#9ba1d3;}.k{stroke:#d1aa09;}</style></defs><title>horse</title><circle class="a" cx="98.21" cy="45.69" r="13.91"/><circle class="b" cx="98.21" cy="45.69" r="18.46"/><circle class="c" cx="98.21" cy="45.69" r="8.94"/><path class="d" d="M159.26,64.15s9.65-37.78-29.55-24.6c0,0-7.9,2.72-22.23,13.66s-25.74.82-24-2.76-7-9.81-19,0-13.16,13.7-13.16,13.7Z"/><path class="e" d="M50,20.11c-.93.31-1.32.26-1.32.36,0,.62,15.58,3.65,20.2-2.71,1.82-2.5,1.95-6.46.56-7.41-1.2-.82-3.86.43-5.39,1.73s-2.28,2.79-2.54,2.65.52-1.37.1-1.83-2.42.31-3.76,1.12C54.09,16.29,53.56,19,50,20.11Z"/><path class="e" d="M117.63,30.5c-.68.22-1,.19-1,.26,0,.45,11.29,2.64,14.64-2,1.32-1.81,1.41-4.68.41-5.37s-2.8.31-3.91,1.25-1.65,2-1.84,1.92.38-1,.07-1.33-1.76.23-2.73.81C120.57,27.74,120.19,29.67,117.63,30.5Z"/><path class="f" d="M5.74,65.94c25,1.52,51.41,2.43,79.1,2.49,29.65.06,57.85-.87,84.44-2.49,0,0-22.63-12.5-54.43-10.16S76.33,67.21,58,60.71,20.56,55.39,5.74,65.94Z"/><path class="g" d="M74.34,62.79c0-.29,16.78-2.15,38.63-.33a222,222,0,0,1,30.9,4.78q-16.19.68-33.07,1-14,.24-27.6.19c4-1.78,5.28-3,5.14-3.77C87.9,62.23,74.34,63,74.34,62.79Z"/><path class="h" d="M36.49,23.4C40.6,21.49,49.3,26.06,48.21,32s-14-.57-1.87-6,24,11.79,24,11.79a17.09,17.09,0,0,1,3,9.49"/><path class="h" d="M32.92,71.31s.22,1.06,1,.7.51-1.41,0-1.38S32.77,70.93,32.92,71.31Z"/><path class="h" d="M24.13,61.76s.22,1.06,1,.7.51-1.41,0-1.38S24,61.37,24.13,61.76Z"/><path class="f" d="M34.42,74.86s.15.72.69.48.35-1,0-.93S34.32,74.6,34.42,74.86Z"/><path class="f" d="M26.27,68.9s-2.21,1-1.06,2.58,3.34.46,3-.65S27,68.38,26.27,68.9Z"/><path class="h" d="M67.87,38.09s-6.55-7.86-10.81-6.87"/><path class="h" d="M55.86,31.48s-1.44.35-1.73.94"/><path class="h" d="M142.26,75.53s.22,1.06,1,.7.51-1.41,0-1.38S142.11,75.15,142.26,75.53Z"/><path class="f" d="M151.44,77.41s.15.72.69.48.35-1,0-.93S151.33,77.16,151.44,77.41Z"/><path class="f" d="M158.07,71.92s-1.35.61-.65,1.58,2,.28,1.85-.4S158.54,71.61,158.07,71.92Z"/><path class="h" d="M155.86,70.83a18.51,18.51,0,0,1,6.64-10.45c1.95-1.42,6.38-3.95,8.47-2.45a2.49,2.49,0,0,1,.95,1.55,2.81,2.81,0,0,1-2.41,3c-1.44,0-2.56-2.14-2.32-3.8a4.07,4.07,0,0,1,4.24-3.15c1.5.19,2,1.61,3.3,1.52a3.41,3.41,0,0,0,2.35-1.78"/><path class="i" d="M145.45,66.28s1.43-.63,1.69-.45c0,0,.34-.83.8,0a8.39,8.39,0,0,1,1.89,1c.61.43,1.12.8,1.09,1.27a1,1,0,0,1-.4.66.93.93,0,0,1-.12.29,1.18,1.18,0,0,1-.85.48l-.33.09q-.53.13-1,.23s.51,1.95,1.28,2.34S151,73,151,73.58s-1.45-.47-2.19-.86-1.75-.94-1.75-.94.72,2.82,1.55,3.13,1.29,1,1.07,1.1-.88.47-1.91-.78A4.18,4.18,0,0,0,146,73.8a7.88,7.88,0,0,1-2-2.72c-.16-.59-1.92-.53-3.06-1.23s-4-3.33-5.24-2.85-2.89.17-3.13-.25-.1.37-.48.73-.66.39-.76.52-.14.71-.49.79-.16-.89,0-1.39a5.52,5.52,0,0,0,.85-2.3.86.86,0,0,1,.82-.5c.62,0,.74-1.32.49-1.28s-2.82,1-4.57.25-1.78-1-1.78-1.14.74-.26,2.09-.12,2.46.56,3.66.21,2.72-1.44,5.07-1c1.89.37,2.16,1.53,6.67,4.07C144.73,65.9,145.18,66.13,145.45,66.28Z"/><path class="h" d="M67.7,77.94a3.15,3.15,0,0,0,5,0"/><path class="h" d="M62.76,77.94a3.15,3.15,0,0,0,5,0"/><path class="h" d="M92.77,77.94a3.15,3.15,0,0,0,5,0"/><path class="h" d="M87.76,77.94a3.15,3.15,0,0,0,5,0"/><path class="h" d="M82.74,77.94a3.15,3.15,0,0,0,5,0"/><path class="h" d="M77.73,77.94a3.15,3.15,0,0,0,5,0"/><path class="h" d="M72.71,77.94a3.15,3.15,0,0,0,5,0"/><path class="h" d="M70.65,75.58a3.15,3.15,0,0,0,5,0"/><path class="h" d="M65.71,75.58a3.15,3.15,0,0,0,5,0"/><path class="h" d="M95.73,75.58a3.15,3.15,0,0,0,5,0"/><path class="h" d="M90.71,75.58a3.15,3.15,0,0,0,5,0"/><path class="h" d="M85.7,75.58a3.15,3.15,0,0,0,5,0"/><path class="h" d="M80.68,75.58a3.15,3.15,0,0,0,5,0"/><path class="h" d="M75.67,75.58a3.15,3.15,0,0,0,5,0"/><path class="h" d="M66.73,72.92a3.15,3.15,0,0,0,5,0"/><path class="h" d="M61.79,72.92a3.15,3.15,0,0,0,5,0"/><path class="h" d="M91.81,72.92a3.15,3.15,0,0,0,5,0"/><path class="h" d="M86.79,72.92a3.15,3.15,0,0,0,5,0"/><path class="h" d="M81.78,72.92a3.15,3.15,0,0,0,5,0"/><path class="h" d="M76.76,72.92a3.15,3.15,0,0,0,5,0"/><path class="h" d="M71.75,72.92a3.15,3.15,0,0,0,5,0"/><path class="i" d="M79.8,47.6A20,20,0,0,0,88,44.52a1.46,1.46,0,0,1,1.85.85c.58,1.31,2.19,7.54,2.92,9.27a11.31,11.31,0,0,1,1,5.07c-.15,1.38-2.19,5-2.19,5a4.82,4.82,0,0,0-.88-2.58c-.81-.88,2.29-1.77,1.68-3.69,0,0-.23,0-.43-.4s.48-.44,0-2.28S89.87,47.13,88.47,47,80.22,53,78.21,52.52,79.8,47.6,79.8,47.6Z"/><path class="i" d="M44.45,57.25S43,60.09,40.9,60.64a12.64,12.64,0,0,1-3.12.59c-.67,0,1.38,4.57,1.46,6.19s-.12,4.38,0,4.85.67-.35.87,0,.08,2.09-.59,2.33a3.41,3.41,0,0,1-1.54.28,9.09,9.09,0,0,0,.71,3.83c.47.51,2.15-3.35,2.36-5.36a84.06,84.06,0,0,0-.39-9.5c-.08-.32,3.83-2.6,5.68-2.13S44.45,57.25,44.45,57.25Z"/><path class="i" d="M43.29,43.28s-2.26-3.76-7-1.36-3.34,4.8-6.16,8.56-6.3,3.7-8.7,1.78C21.16,52.05,21,52,21,52a11.52,11.52,0,0,0,5.9,3.69c4.37.94,9.87-1.86,10.56-5.06.27-1.24-.22-2.4.53-4.76.46-1.46.94-1.91,1.35-2.15a3.55,3.55,0,0,1,3.15.19"/><path class="j" d="M81.35,26.32s.05,1.9,5.48,3.1c0,0,3.18,2.25,3.65,3.41s2.74.19,1.64-1.2-4-4.47-4.15-6.35-1.07-5.16-2.77-5.66c0,0,1.1-2.64.94-3.52s-2.7,2.2-3.71,2.23-4-1.29-6,1S69.15,28.68,69,33.14s-3.33,8.3-5.54,8.11-17-2.43-20.33,1.54-3.85,7-3,10,3.07,4.75,4.32,6.7,1.81,4,1.6,4.67.17,2.42-1.77,4.19S52.64,72.57,55,76.89a3.83,3.83,0,0,1,.22,3.37A5,5,0,0,1,58,81.65c1.38,1.3-.43-6-2.42-6.74s-7.65-6-7.73-6.44-.39-2.55.52-3.28,4.06-7,3.72-7.56c0,0,5.92,1.9,10.91,1.21S73.81,54.9,73.81,54.9s.09,1.69,1,1.73,11.45-.73,11.67-.43A3.08,3.08,0,0,1,86,59c-.86,1.38-2.25,4.32-3.8,5.27s1.27,1.12.17,1.88S79.6,68,79,67.88s.59,1.62-.07,2.89,2,0,4.16-3.48,5.82-11,5.75-11.7.14-1.48-2.62-1.51-7.95-.69-7.95-.69,4.37-6.78,3.82-12.63-1.82-8.57-1.72-10.84A7.83,7.83,0,0,1,81.35,26.32Z"/><path class="i" d="M83.19,19.73s1.08,3.6,5.77,2.16-.9-.86-2.43-2.61A7.3,7.3,0,0,0,82.38,17a8.17,8.17,0,0,0-4.19.42A13.14,13.14,0,0,0,71,23.27c-2.8,5-1.16,10.73-3.58,13.93a7.18,7.18,0,0,1-2.4,2,6.16,6.16,0,0,1-2.54.56A6.68,6.68,0,0,0,66.66,41c3.86-.32,6.18-4.76,6.89-6.13,3.44-6.57,1.12-12.38,4.52-15.16a4.13,4.13,0,0,1,3.22-1.16A3.34,3.34,0,0,1,83.19,19.73Z"/><polyline class="k" points="107.15 44.73 108.58 46.28 110 44.73"/><polyline class="k" points="107.15 46.91 108.58 48.47 110 46.91"/><polyline class="k" points="107.15 49.1 108.58 50.65 110 49.1"/><line class="k" x1="108.58" y1="46.39" x2="108.58" y2="60.06"/><polyline class="k" points="111.32 44.73 112.75 46.28 114.17 44.73"/><polyline class="k" points="111.32 46.91 112.75 48.47 114.17 46.91"/><polyline class="k" points="111.32 49.1 112.75 50.65 114.17 49.1"/><line class="k" x1="112.75" y1="46.39" x2="112.75" y2="60.06"/><polyline class="k" points="115.43 44.73 116.86 46.28 118.28 44.73"/><polyline class="k" points="115.43 46.91 116.86 48.47 118.28 46.91"/><polyline class="k" points="115.43 49.1 116.86 50.65 118.28 49.1"/><line class="k" x1="116.86" y1="46.39" x2="116.86" y2="60.06"/><polyline class="k" points="119.66 44.73 121.09 46.28 122.51 44.73"/><polyline class="k" points="119.66 46.91 121.09 48.47 122.51 46.91"/><polyline class="k" points="119.66 49.1 121.09 50.65 122.51 49.1"/><line class="k" x1="121.09" y1="46.39" x2="121.09" y2="60.06"/><polyline class="k" points="124.05 44.73 125.48 46.28 126.9 44.73"/><polyline class="k" points="124.05 46.91 125.48 48.47 126.9 46.91"/><polyline class="k" points="124.05 49.1 125.48 50.65 126.9 49.1"/><line class="k" x1="125.48" y1="46.39" x2="125.48" y2="60.06"/><polyline class="k" points="128.16 44.73 129.59 46.28 131.01 44.73"/><polyline class="k" points="128.16 46.91 129.59 48.47 131.01 46.91"/><polyline class="k" points="128.16 49.1 129.59 50.65 131.01 49.1"/><line class="k" x1="129.59" y1="46.39" x2="129.59" y2="60.06"/></svg>